<svg width="192" height="192" viewBox="0 0 192 192" fill="none" xmlns="http://www.w3.org/2000/svg">
<mask id="mask0_15_191" style="mask-type:alpha" maskUnits="userSpaceOnUse" x="24" y="23" width="143" height="146">
<rect x="24" y="23" width="143" height="146" fill="#D9D9D9"/>
</mask>
<g mask="url(#mask0_15_191)">
<path d="M52.2379 146.656H48.505C48.4368 146.173 48.2976 145.744 48.0874 145.369C47.8771 144.989 47.6072 144.665 47.2777 144.398C46.9482 144.131 46.5675 143.926 46.1357 143.784C45.7095 143.642 45.2464 143.571 44.7464 143.571C43.843 143.571 43.0561 143.795 42.3857 144.244C41.7152 144.687 41.1953 145.335 40.826 146.188C40.4567 147.034 40.272 148.062 40.272 149.273C40.272 150.517 40.4567 151.562 40.826 152.409C41.201 153.256 41.7237 153.895 42.3942 154.327C43.0646 154.759 43.8402 154.974 44.7209 154.974C45.2152 154.974 45.6726 154.909 46.093 154.778C46.5192 154.648 46.897 154.457 47.2266 154.207C47.5561 153.952 47.8288 153.642 48.0447 153.278C48.2663 152.915 48.4197 152.5 48.505 152.034L52.2379 152.051C52.1413 152.852 51.8999 153.625 51.5135 154.369C51.1328 155.108 50.6186 155.77 49.9709 156.355C49.3288 156.935 48.5618 157.395 47.6697 157.736C46.7834 158.071 45.7805 158.239 44.6612 158.239C43.1044 158.239 41.7124 157.886 40.4851 157.182C39.2635 156.477 38.2976 155.457 37.5874 154.122C36.8828 152.787 36.5305 151.17 36.5305 149.273C36.5305 147.369 36.8885 145.75 37.6044 144.415C38.3203 143.08 39.2919 142.062 40.5192 141.364C41.7464 140.659 43.1271 140.307 44.6612 140.307C45.6726 140.307 46.6101 140.449 47.4737 140.733C48.343 141.017 49.1129 141.432 49.7834 141.977C50.4538 142.517 50.9993 143.179 51.4197 143.963C51.8459 144.747 52.1186 145.645 52.2379 146.656ZM54.2195 143.588V140.545H68.5547V143.588H63.2109V158H59.5632V143.588H54.2195ZM81.6967 140.545H85.3871V151.881C85.3871 153.153 85.0831 154.267 84.4751 155.222C83.8729 156.176 83.0291 156.92 81.9439 157.455C80.8587 157.983 79.5945 158.247 78.1513 158.247C76.7024 158.247 75.4354 157.983 74.3501 157.455C73.2649 156.92 72.4212 156.176 71.8189 155.222C71.2166 154.267 70.9155 153.153 70.9155 151.881V140.545H74.6058V151.565C74.6058 152.23 74.7507 152.821 75.0405 153.338C75.3359 153.855 75.7507 154.261 76.2848 154.557C76.8189 154.852 77.4411 155 78.1513 155C78.8672 155 79.4893 154.852 80.0178 154.557C80.5518 154.261 80.9638 153.855 81.2536 153.338C81.549 152.821 81.6967 152.23 81.6967 151.565V140.545ZM102.066 147.832V150.713H94.1058V147.832H102.066ZM110.783 158V140.545H114.473V154.957H121.956V158H110.783ZM124.4 158V140.545H131.286C132.604 140.545 133.729 140.781 134.661 141.253C135.599 141.719 136.312 142.381 136.8 143.239C137.295 144.091 137.542 145.094 137.542 146.247C137.542 147.406 137.292 148.403 136.792 149.239C136.292 150.068 135.567 150.705 134.619 151.148C133.675 151.591 132.533 151.812 131.192 151.812H126.582V148.847H130.596C131.3 148.847 131.886 148.75 132.352 148.557C132.817 148.364 133.164 148.074 133.391 147.688C133.624 147.301 133.741 146.821 133.741 146.247C133.741 145.668 133.624 145.179 133.391 144.781C133.164 144.384 132.815 144.082 132.343 143.878C131.877 143.668 131.289 143.562 130.579 143.562H128.09V158H124.4ZM133.826 150.057L138.164 158H134.09L129.846 150.057H133.826ZM155.55 146.656H151.817C151.749 146.173 151.61 145.744 151.4 145.369C151.19 144.989 150.92 144.665 150.59 144.398C150.261 144.131 149.88 143.926 149.448 143.784C149.022 143.642 148.559 143.571 148.059 143.571C147.156 143.571 146.369 143.795 145.698 144.244C145.028 144.687 144.508 145.335 144.138 146.188C143.769 147.034 143.585 148.062 143.585 149.273C143.585 150.517 143.769 151.562 144.138 152.409C144.513 153.256 145.036 153.895 145.707 154.327C146.377 154.759 147.153 154.974 148.033 154.974C148.528 154.974 148.985 154.909 149.406 154.778C149.832 154.648 150.21 154.457 150.539 154.207C150.869 153.952 151.141 153.642 151.357 153.278C151.579 152.915 151.732 152.5 151.817 152.034L155.55 152.051C155.454 152.852 155.212 153.625 154.826 154.369C154.445 155.108 153.931 155.77 153.283 156.355C152.641 156.935 151.874 157.395 150.982 157.736C150.096 158.071 149.093 158.239 147.974 158.239C146.417 158.239 145.025 157.886 143.798 157.182C142.576 156.477 141.61 155.457 140.9 154.122C140.195 152.787 139.843 151.17 139.843 149.273C139.843 147.369 140.201 145.75 140.917 144.415C141.633 143.08 142.604 142.062 143.832 141.364C145.059 140.659 146.44 140.307 147.974 140.307C148.985 140.307 149.923 140.449 150.786 140.733C151.656 141.017 152.425 141.432 153.096 141.977C153.766 142.517 154.312 143.179 154.732 143.963C155.158 144.747 155.431 145.645 155.55 146.656Z" fill="white"/>
<path d="M95.5 131.333C90.7334 127.903 85.5695 125.24 80.0084 123.344C74.4473 121.448 68.6875 120.5 62.7292 120.5C58.5584 120.5 54.462 120.997 50.4401 121.99C46.4183 122.983 42.5702 124.382 38.8959 126.188C36.8105 127.181 34.7995 127.135 32.8631 126.052C30.9266 124.969 29.9584 123.389 29.9584 121.313V56.0417C29.9584 55.0486 30.2315 54.1007 30.7776 53.1979C31.3238 52.2951 32.1431 51.6181 33.2355 51.1667C37.8035 49 42.5702 47.375 47.5355 46.2917C52.5007 45.2083 57.5653 44.6667 62.7292 44.6667C68.4889 44.6667 74.1245 45.3438 79.636 46.6979C85.1474 48.0521 90.4355 50.0833 95.5 52.7917V121.313C100.565 118.333 105.877 116.099 111.439 114.609C117 113.12 122.61 112.375 128.271 112.375C131.846 112.375 135.744 112.691 139.964 113.323C144.185 113.955 148.231 115.264 152.104 117.25V48.8646C153.086 49.2031 154.052 49.5584 155 49.9303C155.949 50.3032 156.871 50.7153 157.765 51.1667C158.758 51.7083 159.552 52.4161 160.148 53.29C160.744 54.163 161.042 55.0802 161.042 56.0417V121.313C161.042 123.389 160.073 124.969 158.137 126.052C156.201 127.135 154.19 127.181 152.104 126.188C148.43 124.382 144.582 122.983 140.56 121.99C136.538 120.997 132.442 120.5 128.271 120.5C122.313 120.5 116.553 121.448 110.992 123.344C105.431 125.24 100.267 127.903 95.5 131.333ZM104.438 108.719V60.9167L143.167 25.7083V78.1146L104.438 108.719ZM86.5625 117.25V57.8021C83.1861 56.0868 79.2636 54.8229 74.7948 54.0104C70.3261 53.1979 66.3042 52.7917 62.7292 52.7917C58.0618 52.7917 53.7172 53.2431 49.6954 54.1458C45.6735 55.0486 42.0737 56.201 38.8959 57.603V117.25C42.3716 115.715 46.1204 114.519 50.1422 113.661C54.1641 112.804 58.3846 112.375 62.8037 112.375C67.2228 112.375 71.4184 112.804 75.3907 113.661C79.3629 114.519 83.0868 115.715 86.5625 117.25Z" fill="white"/>
</g>
</svg>
